/* XPM */
static char *ae4b1735fe5b4809f6a3202c901d61e00ZavVRR6tUKamYLO[] = {
/* columns rows colors chars-per-pixel */
"32 16 8 1 ",
"  c #020101",
". c #523732",
"X c #603F39",
"o c #7B4F47",
"O c #7C4F47",
"+ c #AC756B",
"@ c #AC756C",
"# c white",
/* pixels */
"################################",
"################################",
"################################",
"#@##############################",
"#@@#####@@@@@@@@@@@@@###########",
"#@@@##@+@@OOOOOOOOOOo@@@########",
"#@@Oo@@@OOOOOOOOOOOOOOO@@@######",
"#OOOOOOOOOOOOOOOOOOOOO OOO######",
"#OOOXXXXXXXXXXXXXXXXXXXXXX######",
"#OXXXXXXXXXXXXXXXXXXXX....######",
"#XX.##..XXXXXXXX........########",
"#..#####.............###########",
"#.##############################",
"################################",
"################################",
"################################"
};
