/* XPM */
static char *_c448f487ff24fe1a2bb5367fe89e3a8W5fqBVOfs2ejbQ8G[] = {
/* columns rows colors chars-per-pixel */
"48 48 83 1 ",
"  c #040204",
". c #A4762C",
"X c #ECB24C",
"o c #F4CE4C",
"O c #6C421C",
"+ c #FCDE74",
"@ c #340E04",
"# c #ECC24C",
"$ c #F4CE6C",
"% c #44260C",
"& c #F4C264",
"* c #BC8E3C",
"= c #F4D66C",
"- c #F4CA4C",
"; c #3C1A04",
": c #AC8234",
"> c #1C0604",
", c #ECBA4C",
"< c #F4D65C",
"1 c #845E24",
"2 c #F4C64C",
"3 c #FCD67C",
"4 c #FCE28C",
"5 c #AC8A3C",
"6 c #F4CE5C",
"7 c #44220C",
"8 c #B48234",
"9 c #ECBE5C",
"0 c #140204",
"q c #341604",
"w c #ECC25C",
"e c #F4D26C",
"r c #5C3214",
"t c #C49E3C",
"y c #FCDA6C",
"u c #441E0C",
"i c #AC8634",
"p c #ECBE4C",
"a c #A4722C",
"s c #F4D254",
"d c #7C5224",
"f c #FCE284",
"g c #ECC64C",
"h c #F4CA6C",
"j c #BC9634",
"k c #F4CA5C",
"l c #3C1E0C",
"z c #2C0A04",
"x c #94722C",
"c c #F4C65C",
"v c #FCDA7C",
"b c #FCE68C",
"n c #0C0204",
"m c #A47A3C",
"M c #ECB64C",
"N c #F4CE54",
"B c #6C4A1C",
"V c #FCDE7C",
"C c #341204",
"Z c #ECC254",
"A c #F4CE74",
"S c #4C260C",
"D c #F4C664",
"F c #BC9244",
"G c #F4D674",
"H c #F4CA54",
"J c #3C1A0C",
"K c #AC823C",
"L c #240604",
"P c #ECBA54",
"I c #F4D664",
"U c #8C6224",
"Y c #F4C654",
"T c #F4D25C",
"R c #140604",
"E c #3C1604",
"W c #F4D274",
"Q c #5C3A14",
"! c #FCDA74",
"~ c #AC863C",
"^ c #ECBE54",
"/ c #FCDA84",
"( c #FCE694",
/* pixels */
"                                                ",
"                                                ",
"                                                ",
"                                                ",
"                                                ",
"                                                ",
"                                                ",
"                                                ",
"                                                ",
"                                                ",
"                                                ",
"                                                ",
"                                                ",
"                                                ",
"                                                ",
"                     000000                     ",
"                   0>Q::jjQ>0                   ",
"                  0zj^v3!o,jz0                  ",
"                 0%Ff/hX6vVft%0                 ",
"                0zF/WX,Mp#-vftz0                ",
"                >j/3MXM#p#-NvIj>                ",
"               0QX4hX#p-2oo-#!,Q0               ",
"               0i=/,M#2-#oooo#-i0               ",
"               0://M#p#-ooooo--50               ",
"               0://p--ooooooop#:0               ",
"               0:e/#-#ooooo-2#,:0               ",
"               0Qtv#-oooooo-#XtQ0               ",
"                >j9=No#-oop#,M8>                ",
"                0z*GIooo#2#,X8z0                ",
"                 0%FNVfT2e9M*%0                 ",
"                  0zj,evvet8z0                  ",
"                   0>Q::::Q>0                   ",
"                     000000                     ",
"                                                ",
"                                                ",
"                                                ",
"                                                ",
"                                                ",
"                                                ",
"                                                ",
"                                                ",
"                                                ",
"                                                ",
"                                                ",
"                                                ",
"                                                ",
"                                                ",
"                                                "
};
