/* XPM */
static char *_bcb79c5df1044218034242bbf8610acc8WNOKDsIaToVm34[] = {
/* columns rows colors chars-per-pixel */
"48 48 84 1 ",
"  c None",
". c #040204",
"X c #A4762C",
"o c #ECB24C",
"O c #F4CE4C",
"+ c #6C421C",
"@ c #FCDE74",
"# c #340E04",
"$ c #ECC24C",
"% c #F4CE6C",
"& c #44260C",
"* c #F4C264",
"= c #BC8E3C",
"- c #F4D66C",
"; c #F4CA4C",
": c #3C1A04",
"> c #AC8234",
", c #1C0604",
"< c #ECBA4C",
"1 c #F4D65C",
"2 c #845E24",
"3 c #F4C64C",
"4 c #FCD67C",
"5 c #FCE28C",
"6 c #AC8A3C",
"7 c #F4CE5C",
"8 c #44220C",
"9 c #B48234",
"0 c #ECBE5C",
"q c #140204",
"w c #341604",
"e c #ECC25C",
"r c #F4D26C",
"t c #5C3214",
"y c #C49E3C",
"u c #FCDA6C",
"i c #441E0C",
"p c #AC8634",
"a c #ECBE4C",
"s c #A4722C",
"d c #F4D254",
"f c #7C5224",
"g c #FCE284",
"h c #ECC64C",
"j c #F4CA6C",
"k c #BC9634",
"l c #F4CA5C",
"z c #3C1E0C",
"x c #2C0A04",
"c c #94722C",
"v c #F4C65C",
"b c #FCDA7C",
"n c #FCE68C",
"m c #0C0204",
"M c #A47A3C",
"N c #ECB64C",
"B c #F4CE54",
"V c #6C4A1C",
"C c #FCDE7C",
"Z c #341204",
"A c #ECC254",
"S c #F4CE74",
"D c #4C260C",
"F c #F4C664",
"G c #BC9244",
"H c #F4D674",
"J c #F4CA54",
"K c #3C1A0C",
"L c #AC823C",
"P c #240604",
"I c #ECBA54",
"U c #F4D664",
"Y c #8C6224",
"T c #F4C654",
"R c #F4D25C",
"E c #140604",
"W c #3C1604",
"Q c #F4D274",
"! c #5C3A14",
"~ c #FCDA74",
"^ c #AC863C",
"/ c #ECBE54",
"( c #FCDA84",
") c #FCE694",
/* pixels */
"((((((((((((((((((((((((((((((((((((((((((((((((",
"((((((((((((((((((((((((((((((((((((((((((((((((",
"((((((((((((((((((((((((((((((((((((((((((((((((",
"((((((((((((((((((((((((((((((((((((((((((((((((",
"((((((((((((((((((((((((((((((((((((((((((((((((",
"((((((((((((((((((((((((((((((((((((((((((((((((",
"((((((((((((((((((((((((((((((((((((((((((((((((",
"((((((((((((((((((((((((((((((((((((((((((((((((",
"((((((((((((((((((((((((((((((((((((((((((((((((",
"((((((((((((((((((((((((((((((((((((((((((((((((",
"((((((((((((((((((((((((((((((((((((((((((((((((",
"((((((((((((((((((((((((((((((((((((((((((((((((",
"((((((((((((((((((((((((((((((((((((((((((((((((",
"((((((((((((((((((((((((((((((((((((((((((((((((",
"((((((((((((((((((((((((((((((((((((((((((((((((",
"((((((((((((((((((((>LzzLzLR((((((((((((((((((((",
"(((((((((((((((((( >LQ::jjQL> ((((((((((((((((((",
"((((((((((((((((( >zj^v3!o,jz> (((((((((((((((((",
"(((((((((((((((( >%Ff/hX6vVft%> ((((((((((((((((",
"((((((((((((((((>zF/WX,Mp#-vftz>((((((((((((((((",
"(((((((((((((((>Lj/3MXM#p#-NvIjL>(((((((((((((((",
"(((((((((((((((LQX4hX#p-2oo-#!,QL(((((((((((((((",
"(((((((((((((((Li=/,M#2-#oooo#-iL(((((((((((((((",
"(((((((((((((((z://M#p#-ooooo--5L(((((((((((((((",
"(((((((((((((((z://p--ooooooop#:L(((((((((((((((",
"(((((((((((((((L:e/#-#ooooo-2#,:z(((((((((((((((",
"(((((((((((((((LQtv#-oooooo-#XtQL(((((((((((((((",
"(((((((((((((((>Lj9=No#-oop#,M8LR(((((((((((((((",
"((((((((((((((((>z*GIooo#2#,X8z>((((((((((((((((",
"(((((((((((((((( >%FNVfT2e9M*%> ((((((((((((((((",
"((((((((((((((((( >zj,evvet8z> (((((((((((((((((",
"(((((((((((((((((( >LQ::::QL> ((((((((((((((((((",
"((((((((((((((((((((>LzLLLLR((((((((((((((((((((",
"((((((((((((((((((((((((((((((((((((((((((((((((",
"((((((((((((((((((((((((((((((((((((((((((((((((",
"((((((((((((((((((((((((((((((((((((((((((((((((",
"((((((((((((((((((((((((((((((((((((((((((((((((",
"((((((((((((((((((((((((((((((((((((((((((((((((",
"((((((((((((((((((((((((((((((((((((((((((((((((",
"((((((((((((((((((((((((((((((((((((((((((((((((",
"((((((((((((((((((((((((((((((((((((((((((((((((",
"((((((((((((((((((((((((((((((((((((((((((((((((",
"((((((((((((((((((((((((((((((((((((((((((((((((",
"((((((((((((((((((((((((((((((((((((((((((((((((",
"((((((((((((((((((((((((((((((((((((((((((((((((",
"((((((((((((((((((((((((((((((((((((((((((((((((",
"((((((((((((((((((((((((((((((((((((((((((((((((",
"(((((((((((((((((((((((((((((((((((((((((((((((("
};
