/* XPM */
static char *bd28b7d15c8443bca0e8e09c272498a8qmeKf2LvvARqDvjC[] = {
/* columns rows colors chars-per-pixel */
"48 48 2 1 ",
"  c None",
". c black",
/* pixels */
"                                                ",
"                                                ",
"                                                ",
"                                                ",
"                                                ",
"                                                ",
"                                                ",
"                                                ",
"          ..................                    ",
"          ..................                    ",
"          ..................                    ",
"          ...................                   ",
"          ..............................        ",
"          ..............................        ",
"          ..............................        ",
"          ..............................        ",
"          ..............................        ",
"          ..............................        ",
"          ..............................        ",
"          ..............................        ",
"          ..............................        ",
"          ..............................        ",
"          ..............................        ",
"          ..............................        ",
"          ..............................        ",
"          ..............................        ",
"          ..............................        ",
"          ..............................        ",
"          ....           ...............        ",
"          ....           ...............        ",
"          ....            ..............        ",
"          ....            ..............        ",
"          ....                                  ",
"          ....                                  ",
"          ....                                  ",
"          ....                                  ",
"          ....                                  ",
"          ....                                  ",
"          ....                                  ",
"          ....                                  ",
"          ....                                  ",
"          ....                                  ",
"                                                ",
"                                                ",
"                                                ",
"                                                ",
"                                                ",
"                                                "
};
