/* XPM */
static char *fa50c65aaa694447ea19edab01e69f98LSmQx2waEakX8aUM[] = {
/* columns rows colors chars-per-pixel */
"96 96 23 1 ",
"  c None",
". c black",
"X c #0A0000",
"o c gray4",
"O c #291300",
"+ c #3B210A",
"@ c #373737",
"# c #462911",
"$ c #56361A",
"% c #59381C",
"& c #654123",
"* c #704A29",
"= c #724B29",
"- c #754D2C",
"; c #79502D",
": c #7D5430",
"> c #626262",
", c #885C37",
"< c #825F41",
"1 c #996940",
"2 c #A37B57",
"3 c #A38F7D",
"4 c #8B8B8B",
/* pixels */
"                                                                                                ",
"                                                                                                ",
"                                                                                                ",
"                                                                                                ",
"                                                                                                ",
"                                                                                                ",
"                                                                                                ",
"                                                                                                ",
"                                                                                                ",
"                                                                                                ",
"                            :::                                  :::                            ",
"                           :***X                                :***X                           ",
"                           :*#$X                                :*,$X                           ",
"                           :*2$X                                :,1$X                           ",
"                           :12$X                                :11$X                           ",
"                           :11$X                                :1*$X                           ",
"                           :,,;X##%**%%%****%******%***%*****%@#:11$X                           ",
"                           :12$X%>11121111122,**&&,,,111111111*%:*1;X                           ",
"                           :*2$X*2,,,,1123111111112321112231121*:,*;X                           ",
"                           :*,OX*422322,,,2,,,122,,,,1111221234*:,*;X                           ",
"                           :12$X11111111111112321111**&&,,,,1121:,*;X                           ",
"                           :11$X##%%%%%%%%%##%%%%%##%%%%%%%%##%%:*1;X                           ",
"                           :22$X+####+++#######++++#####++##+###:1,;X                           ",
"                           :11;X..o........o........o.......o...:,,;X                           ",
"                           :2*;X##%****%***%%****%******%****%##:1*$X                           ",
"                           :2*;X%>23221,,,111323211,,123321,,,>%:*1;X                           ",
"                           :12$X*111111--,,,121111,&-,112111111*:**;X                           ",
"                           :12OX*4-&&-,2321111222,&**-,211,,,14*:*1OX                           ",
"                           :12OX11,,,,,,11---,,,111-,-111--*,,11:*1$X                           ",
"                           :*2;X%%%%#%%%%#%%%%#%%##%%%%%%%#%%%%%:1*;X                           ",
"                           :2*;X###+##+####+#####++####+#####+##:,1;X                           ",
"                           :1,$X.o....o....o......o..o......o..o:,1;X                           ",
"                           :2,1X##%****%#*%*%%*%*%%%***%**%#*%##:1,$X                           ",
"                           :22;X%>111111111,,,,1&&*&11,,,,,,11>%:1,$X                           ",
"                           :*1;X*11,,,12232111221112223221,,,11*:1*$X                           ",
"                           :*2;X*4113211,,,11112,,,,,11,,,,2314*:11$X                           ",
"                           :,2OX11,,,,,,111&&&*11&*&11**&&11,111:*1;X                           ",
"                           :,,;X%%%##%%%%%%%%#%%%%%#%%%%%%%%#%%%:,*;X                           ",
"                           :12$X####+++##++#####+###+#####++++++:,*;X                           ",
"                           :*2$X........o..o...o.......o........:,*;X                           ",
"                           :*,OX##%**#%%%%%%%%*#*%%*##*%%%*#*%##:*1;X                           ",
"                           :12$X%>11,11**,,,1111---111111,,111>%:1,;X                           ",
"                           :11$X*12222111111112221--22121111221*:,,;X                           ",
"                           :22$X*1,,112222&&**,,,,111---1,,--411:1*$X                           ",
"                           :11;X1411211,,,,,,11111,,----1---11-1:*1;X                           ",
"                           :2*;X%%##%%%#%%%%%%%%##%%%#%%%##%%%%%:**;X                           ",
"                           :2*;X###++##+++###+##+####+#####++#+#:*1OX                           ",
"                           :12$Xoo....o......o.....o.......o...o:*1$X                           ",
"                           :12OX##%****%***%%****%******%****%##:1*;X                           ",
"                           :12OX%>23221,,,111323211,,123321,,,>%:,1;X                           ",
"                           :*2;X*111111--,,,121111,&-,112111111*:,1;X                           ",
"                           :2*;X*4-&&-,2321111222,&**-,211,,,14*:1,OX                           ",
"                           :1,$X11,,,,,,11---,,,111-,-111--*,,11:11OX                           ",
"                           :2,$X%%%%#%%%%#%%%%#%%##%%%%%%%#%%%%%:,*OX                           ",
"                           :*1$X###+##+####+#####++####+#####+##:1*;X                           ",
"                           :*1OX.o....o....o......o..o......o..o:1*;X                           ",
"                           :*2OX##%**%%%****%******%***%*****%@#:*1;X                           ",
"                           :*,OX%>11121111122,**&&,,,111111111*%:11OX                           ",
"                           :11$X*2,,,,1123111111112321112231121*:,1OX                           ",
"                           :,*;X*422322,,,2,,,122,,,,1111221234*:,*;X                           ",
"                           :1*$X11111111111112321111**&&,,,,1121:,*;X                           ",
"                           :,2<X##%%%%%%%%%##%%%%%##%%%%%%%%##%%:,,+X                           ",
"                           :1*<X+####+++#######++++#####++##+###:+,+X                           ",
"                           :**$X..o........o........o.......o...:$$+X                           ",
"                           :12$X##%**#%%%%%%%%*#*%%*##*%%%*#*%##:*1;X                           ",
"                           :11$X%>11,11**,,,1111---111111,,111>%:,*;X                           ",
"                           :22$X*12222111111112221--22121111221*:,*;X                           ",
"                           :11;X*1,,112222&&**,,,,111---1,,--411:,*;X                           ",
"                           :2*;X1411211,,,,,,11111,,----1---11-1:*1;X                           ",
"                           :2*;X%%##%%%#%%%%%%%%##%%%#%%%##%%%%%:1,;X                           ",
"                           :12$X###++##+++###+##+####+#####++#+#:,,;X                           ",
"                           :12OXoo....o......o.....o.......o...o:1*$X                           ",
"                           :12OX##%****%***%%****%******%****%##:*1;X                           ",
"                           :*2;X%>23221,,,111323211,,123321,,,>%:**;X                           ",
"                           :2*;X*111111--,,,121111,&-,112111111*:*1OX                           ",
"                           :1,$X*4-&&-,2321111222,&**-,211,,,14*:,*;X                           ",
"                           :2,$X11,,,,,,11---,,,111-,-111--*,,11:,*;X                           ",
"                           :*1$X%%%%#%%%%#%%%%#%%##%%%%%%%#%%%%%:,,+X                           ",
"                           :1*<X###+##+####+#####++####+#####+##:+,+X                           ",
"                           :**$X.o....o....o......o..o......o..o:$$+X                           ",
"                           :**$X                                :*$$X                           ",
"                           :111X                                :11*X                           ",
"                           :121X                                :121X                           ",
"                           :222X                                :212X                           ",
"                           :121X                                :12,X                           ",
"                           :,1,X                                :,1,X                           ",
"                           .XXX.                                .XXX.                           ",
"                                                                                                ",
"                                                                                                ",
"                                                                                                ",
"                                                                                                ",
"                                                                                                ",
"                                                                                                ",
"                                                                                                ",
"                                                                                                ",
"                                                                                                "
};
