/* XPM */
static char *e032898554384f05aefedc950c996b17DyRt80wR4CaC8C02[] = {
/* columns rows colors chars-per-pixel */
"48 48 117 2 ",
"   c None",
".  c #2F1A08",
"X  c #341D0B",
"o  c #37200D",
"O  c #39220F",
"+  c #342010",
"@  c #3D2512",
"#  c #442B16",
"$  c #482D17",
"%  c #492E18",
"&  c #4D311B",
"*  c #51341B",
"=  c #593A1E",
"-  c #513721",
";  c #563B25",
":  c #5C3C22",
">  c #5C3F28",
",  c #623F22",
"<  c #554134",
"1  c #594234",
"2  c #664224",
"3  c #694526",
"4  c #6E4929",
"5  c #734D2C",
"6  c #77502E",
"7  c #79512F",
"8  c #765133",
"9  c #7C5432",
"0  c #7E5A3A",
"q  c #765D4C",
"w  c #815733",
"e  c #845935",
"r  c #895D37",
"t  c #855C3A",
"y  c #895E39",
"u  c #8C623E",
"i  c #90623B",
"p  c #90623C",
"a  c #91633C",
"s  c #92643D",
"d  c #94653E",
"f  c #92633C",
"g  c #97683F",
"h  c #8D6440",
"j  c #8F6541",
"k  c #8C6543",
"l  c #8B6544",
"z  c #8D6542",
"x  c #846349",
"c  c #84664D",
"v  c #86674E",
"b  c #85654C",
"n  c #87694F",
"m  c #87694F",
"M  c #906541",
"N  c #916641",
"B  c #906542",
"V  c #916742",
"C  c #926742",
"Z  c #946640",
"A  c #956742",
"S  c #936741",
"D  c #916945",
"F  c #936A47",
"G  c #966A44",
"H  c #976A44",
"J  c #966A45",
"K  c #976A45",
"L  c #976B45",
"P  c #946B47",
"I  c #956A45",
"U  c #986840",
"Y  c #986B45",
"T  c #986B46",
"R  c #986C46",
"E  c #9A6D46",
"W  c #9A6D47",
"Q  c #996D47",
"!  c #966C48",
"~  c #976D48",
"^  c #966E4C",
"/  c #976D48",
"(  c #9B6E48",
")  c #996F4A",
"_  c #9A6F4A",
"`  c #9B6F4A",
"'  c #9A6F4B",
"]  c #9A6F4A",
"[  c #9B704A",
"{  c #9D714B",
"}  c #9A714D",
"|  c #9D724C",
" . c #9D734D",
".. c #9E744F",
"X. c #9D724C",
"o. c #816450",
"O. c #826450",
"+. c #846551",
"@. c #846651",
"#. c #856752",
"$. c #836551",
"%. c #846955",
"&. c #8A6A50",
"*. c #8B6B50",
"=. c #8B6B50",
"-. c #926F52",
";. c #926F52",
":. c #977152",
">. c #967153",
",. c #977254",
"<. c #9F7551",
"1. c #987355",
"2. c #9D7757",
"3. c #9F7550",
"4. c #93745C",
"5. c #93745C",
"6. c #9F7A5C",
/* pixels */
"                                                                                                ",
"                                                                                                ",
"                                                                                                ",
"                                                                                                ",
"                                                                                                ",
"                            5 2                                 7 5                             ",
"                            9 #                                 9 5                             ",
"                            H $                                 r 5                             ",
"                            N * 1 e t w r u t 5 4 9 e e r r e > w w                             ",
"                            t @ %.^ ,.Y ,.Y s R H >.H U <.2.6.#.w 5                             ",
"                            Y $ 8 9 9 9 9 9 0 c 9 6 2 , 5 5 9 0 9 9                             ",
"                            _ * . o X X o o X X X X O o X o X O e 9                             ",
"                            k = 1 c l 9 9 w x &.t 9 w &.n w 6 1 w 6                             ",
"                            _ # o.t t k -.a R  .H 5 9 R _ i Z #.6 5                             ",
"                            F & 9 5 4 5 9 3 4 5 9 4 4 9 5 2 5 9 w 7                             ",
"                            u * X X o X X X X X X X O X o X X O e e                             ",
"                            } 2 < w e e 9 9 5 9 3 2 e 9 9 5 9 1 r 5                             ",
"                            u : o.Z >.R ,.H g ..a N _ 1.N N >.#.r 5                             ",
"                            k & 9 5 5 5 9 5 : 5 5 , 9 2 , 9 8 9 9 9                             ",
"                            F $ X X . X X X X o X X X o X X . X 9 5                             ",
"                            u @ < e 9 5 4 5 9 9 4 5 9 w 7 9 w 1 w w                             ",
"                            _ % t ~  .{ [ e r ~ N r H u d u 4.u e 5                             ",
"                            N : q 9 t 6 5 5 5 9 7 5 2 3 5 2 9 5 7 9                             ",
"                            F & X X X X X X X o X O X o X X X O 6 5                             ",
"                            _ + 1 c l 9 9 w x &.t 9 w &.n w 6 1 e 9                             ",
"                            k : o.t t k -.a R  .H 5 9 R _ i Z #.e 7                             ",
"                            N $ 9 5 4 5 9 3 4 5 9 4 4 9 5 2 5 9 r 2                             ",
"                            e O X X X X o X X o X X O X o o X @ r 5                             ",
"                            t X 1 9 t 9 t y t 5 4 9 w w e e w > w 9                             ",
"                            r * %.^ ,.Y ,.Y s R H >.H U <.2.6.#.e 5                             ",
"                            u ; 8 9 9 9 9 9 0 c 9 6 2 , 5 5 9 0 w 4                             ",
"                            9 - . o X . X X X X X X X X X X X O 3 :                             ",
"                            H $ < e 9 5 4 5 9 9 4 5 9 w 7 9 w 1 7 7                             ",
"                            _ * t ~  .{ [ e r ~ N r H u d u 4.u w 5                             ",
"                            k = q 9 t 6 5 5 5 9 7 5 2 3 5 2 9 5 w w                             ",
"                            _ @ X X X X X X X o X O X o X X X O e 5                             ",
"                            F & 1 c l 9 9 w x &.t 9 w &.n w 6 1 5 9                             ",
"                            u * o.t t k -.a R  .H 5 9 R _ i Z #.9 5                             ",
"                            u $ 9 5 4 5 9 3 4 5 9 4 4 9 5 2 5 9 w 4                             ",
"                            9 - X X X X X X X X . X X X X X X O 3 =                             ",
"                            e :                                 w 5                             ",
"                            <.8                                 k _                             ",
"                            A 4                                 r k                             ",
"                                                                                                ",
"                                                                                                ",
"                                                                                                ",
"                                                                                                ",
"                                                                                                "
};
