/* XPM */
static char *_9f3da1b92464d80e49261bd6b50d83fauz2Kb6YajG4xR6O[] = {
/* columns rows colors chars-per-pixel */
"100 100 76 1 ",
"  c black",
". c #075220",
"X c #085A23",
"o c #085F25",
"O c #006B18",
"+ c #00741A",
"@ c #007B1C",
"# c #007D1C",
"$ c #086126",
"% c #096327",
"& c #096728",
"* c #096B2A",
"= c #096C2A",
"- c #0A6D2B",
"; c #0A6F2B",
": c #0A702C",
"> c #0A722C",
", c #0A742D",
"< c #0A772E",
"1 c #0A782F",
"2 c #0B7A30",
"3 c #0B7C30",
"4 c #0B7F32",
"5 c #00801D",
"6 c #00851E",
"7 c #00861E",
"8 c #008A1F",
"9 c #0B8132",
"0 c #0B8233",
"q c #0C8534",
"w c #0C8634",
"e c #0C8735",
"r c #0C8B36",
"t c #0C8D37",
"y c #009121",
"u c #009421",
"i c #009622",
"p c #009A23",
"a c #009E24",
"s c #0D9038",
"d c #0D9239",
"f c #0D943A",
"g c #0D973B",
"h c #0E993C",
"j c #00A124",
"k c #00A525",
"l c #00A726",
"z c #00A826",
"x c #00AD27",
"c c #00AF27",
"v c #00B428",
"b c #00B629",
"n c #00BA2A",
"m c #00BD2B",
"M c #00C02B",
"N c #00C32C",
"B c #00C62D",
"V c #418000",
"C c #4B9300",
"Z c #4B9400",
"A c #52A000",
"S c #55A600",
"D c #57AA00",
"F c #59AF00",
"G c #5AB000",
"H c #5BB200",
"J c #5DB600",
"K c #5EB900",
"L c #61BF00",
"P c #63C200",
"I c #67C900",
"U c #69CE00",
"Y c #6BD100",
"T c #6CD400",
"R c #6ED800",
"E c #70DB00",
/* pixels */
"                                                                                                    ",
"                                                                                                    ",
"  .Xo57*;::::::::yy::yy::::::y:::yy::y:y::y::A:::::::yy::::::::::yy::yy::::::y:::yy::y:y::y;*Z%oX.  ",
"  X$&=y,1aaa22222aaa222222aa222222a222222222FF222F2222a22aaa22222aaa222222aa222222a222222221SA=&$V  ",
"  o6-><2kll99ll999ll9llll99l999l99999999999KlK99Kl9l9999lll99ll999ll9llll99l999l99999999999JaD>-C@  ",
"  %8up39xceeeceeeeeeecceeeeeeecceePPPPeeeeePcPeccceccceecceeeceeeeeeecceeeeeeecceePPPPeeeeeLlH1u85  ",
"  &:pjzwrtttttttttbbttttttbbbtbbtbtIbbbtttbbbbtbtbttbbbtttttttttttbbttttttbbbtbbtbtIbbbtttbvxz3p:7  ",
"  *,2lxrnmmmdYYYddmddddmmddmmmddmmddYmddddmdmmdddmdddmmdmmmmdYYYddmddddmmddmmmddmmddYmddddmsvx92,8  ",
"  ;14qrsMNggRNRgggggNNggNgggNNgNNgggggggggNgNgggggggggggNNggRNRgggggNNggNgggNNgNNgggggggggNfnrq41;  ",
"  y29eIdghhEBBhhhBBhhBhhhhhhhhhBBhhhhhhhhhhhhhEEEEBhhhEhhhhEBBhhhBBhhBhhhhhhhhhBBhhhhhhhhhhgdtPKFA  ",
"  y29eIYRhhBhBhhhhBhhhhEEEhhhhhhhBBhEEEEEhhhhEBBEhBhhhEEEhhBhBhhhhBhhhhEEEhhhhhhhBBhEEEEEhhgdIclF:  ",
"  :29eImNEhhBhhBBhhhhhhBBEhhhhhhhBhhhEBBBEhhEBBEhhhhhhEBBEhhBhhBBhhhhhhBBEhhhhhhhBhhhEBBBEhgYbcK2:  ",
"  ya9etmgBhhhhhBhhEEEhhhBEhhEEEBhhhhhhEBBBEhBhBBhhBBhhhBhBhhhhhBhhEEEhhhBEhhEEEBhhhhhhEBBBEgmtcl2:  ",
"  y2lctmgBhhBBhhhhEBBhhhhhhEEBBBBhhBBhhBhBBhhhBhhhBhBBhBhBhhBBhhhhEBBhhhhhhEEBBBBhhBBhhBhBBgdtc92:  ",
"  :29ctdghhhBhhBhhEBhhBhhhhhhhEBBhhhBhhBhhBhhhhhhhhhhBhhhhhhBhhBhhEBhhBhhhhhhhEBBhhhBhhBhhBgdte92:  ",
"  :29etdghhhhhBBhhhhhhBBhBBhhhhhhhhhhhhhhhhhhEEEEEhhhhhhhhhhhhBBhhhhhhBBhBBhhhhhhhhhhhhhhhhgdIPKFA  ",
"  :2lctdghBBBhBBhBhhEBhhhhBhhBBBhBBhhBBBhhhBBBBEEhhhBBhhhhBBBhBBhBhhEBhhhhBhhBBBhBBhhBBBhhhNmbcKF:  ",
"  ya9ctmNhhBBBhhBBhhEBBhhhhhBBBhhBhhEBBhhhhhhBEhhhBBhBhBBhhBBBhhBBhhEBBhhhhhBBBhhBhhEBBhhhhgdbP92:  ",
"  y29etdNhhhBhhBBhhhEEEhBBhhBBhhhhhEBBBBBhhBBBhhhBBhhhhhBhhhBhhBBhhhEEEhBBhhBBhhhhhEBBBBBhhNmbe92y  ",
"  :29cbdghhhhhhBBhhhhhhhBBBhhhhhhhEEEEBhhhBhhhhhhhhhhBBhhhhhhhhBBhhhhhhhBBBhhhhhhhEEEEBhhhBgdte92:  ",
"  :29ctdgEEEhhhhhhhhBBhhhBBhBBBBhhhhhhhhhhBhhEEEEhhhhBhhhEEEhhhhhhhhBBhhhBBhBBBBhhhhhhhhhhBgdIPKF:  ",
"  ya9etdghEBEhhBBhhhhBhhhhhhBBhhhhhhhhhhBBhhhhEEBBBBhhhhhhEBEhhBBhhhhBhhhhhhBBhhhhhhhhhhBBhgdtPKay  ",
"  :29cbdghEBEhhBhhEEhhhhhBBhhhhhhhBBhBBhhBhBBhhhBhhhhBBhhhEBEhhBhhEEhhhhhBBhhhhhhhBBhBBhhBhNmte9a:  ",
"  :29ctmNhhBBEhhhEBEhhBBhhBhhhhEEBBBhhBhhhhBhBBhhhhhhBhBBhhBBEhhhEBEhhBBhhBhhhhEEBBBhhBhhhhNdbc92:  ",
"  :29etdNhhBhBhhBBEhhhBhhhhhhhEBEEBBhhhhhhhhhhBhhhhhhhhhBhhBhBhhBBEhhhBhhhhhhhEBEEBBhhhhhhhgdtc92:  ",
"  :aletdghhBhBhBBBhhhhhhBBhBhEEEhhhhhhhEEBhBBhhhhhhBBhhhhhhBhBhBBBhhhhhhBBhBhEEEhhhhhhhEEBhNmte92:  ",
"  :a9eIYRhhhhhBBhBhhhBBhBhhBhhhhBBhhhhhEBBhBhBEEhhhBhhEEEhhhhhBBhBhhhBBhBhhBhhhhBBhhhhhEBBhNdbPK2:  ",
"  :2letYNEhhBhhBhBhhhhBhhhhBhhhhBhhhBhhBBhhhhBBEhhhhBhhEBEhhBhhBhBhhhhBhhhhBhhhhBhhhBhhBBhhgdbcK2:  ",
"  :aletdRBBBBhhhhhhhhhhhhhhhhhhhhhhBBhhhhhhBhhBBhhhBBhhhEBBBBhhhhhhhhhhhhhhhhhhhhhhBBhhhhhhNdtcl2:  ",
"  :29etdNBhhhhBBEEEhhBBhhBBBhhhBBBhBBhBhhhhhhhhhhhhhhhhhBBhhhhBBEEEhhBBhhBBBhhhBBBhBBhBhhhhgdte92:  ",
"  :2lctdghhhBBhBBEEEhhBhBBBhhBhhBBBhhBBhhBBhhhhhhBhhBBhhhhhhBBhBBEEEhhBhBBBhhBhhBBBhhBBhhBBgdte92y  ",
"  :2letYNBhhhhBEhhhhBBhhBBhhhBBhhBBhBBhhhEBBhBBhhBhhBhhEBBhhhhBEhhhhBBhhBBhhhBBhhBBhBBhhhEBNdbc92y  ",
"  :a9eImNhhhhhhhhhhhBBBhhhhhhhhhhhhhBBhhhEEBhBBBhhhBhhEBBhhhhhhhhhhhBBBhhhhhhhhhhhhhBBhhhEENdbcl2:  ",
"  y29PbYNBhBBhBBhBBhhBBhBBBBhhhBBhhhhhhBBhhhhhBBhBBhhEBEBBhBBhBBhBBhhBBhBBBBhhhBBhhhhhhBBhhgdtcl2y  ",
"  y29PIdghhhBhBhhhBhhhhhBBhhhhhBhhhhhhhhBhhhhhhhhBBhhEEhhhhhBhBhhhBhhhhhBBhhhhhBhhhhhhhhBhhgdte92y  ",
"  :2lctdNBhhhhhBBhhhhBhhhhhhhhhhhBBhhhhhhBBBhhBBhhhhBBhhBBhhhhhBBhhhhBhhhhhhhhhhhBBhhhhhhBBNdtcl2:  ",
"  :2letdgBhhBBhBhhhhBBhhhhhhhhBBhBhhBhhhBBBhhhBhhhhhBhhhhBhhBBhBhhhhBBhhhhhhhhBBhBhhBhhhBBBgdtc92:  ",
"  y29eIYRhhhhBhhBBBhBBhBhEEEEhBhhhhhhBhhBBhhhhhhhBBhhhEEEhhhhBhhBBBhBBhBhEEEEhBhhhhhhBhhBBhgdte92y  ",
"  :29eImNhhhhhhhhBBBhhBBhhEBEhhhEEEhhBBhhhhhhhhhBBhhhhEBBhhhhhhhhBBBhhBBhhEBEhhhEEEhhBBhhhhgdte9ay  ",
"  :29eImghhEEEhhhhBBhBBhhhhEBEhEBBEEhBBhBBBhBBBhBBhhhhEBhhhEEEhhhhBBhBBhhhhEBEhEBBEEhBBhBBBgmbc9ay  ",
"  :a9etdNBhBBEhhhhhhhBBhhhhEBBhEBBhhhhhhBBhhhBBBhhhBhhhhBBhBBEhhhhhhhBBhhhhEBBhEBBhhhhhhBBhgdbcl2:  ",
"  y2lctdNhhhBEhhhhhhhhhhhhhBhBhBhBhhhBBhhhhhhhBBhBBhBBhhBhhhBEhhhhhhhhhhhhhBhBhBhBhhhBBhhhhgdtcl2y  ",
"  y29ctdghhhhhhhhhhhhEEEEBhhhhhhhhhhhhBhhhBBhhhhhBBhhBhhhhhhhhhhhhhhhEEEEBhhhhhhhhhhhhBhhhBNdte92y  ",
"  :29etYRhhhhhhhBBhhhhEEBhhhhBEEEhhBBhhhhhhBhhBBhhhhhhhEEhhhhhhhBBhhhhEEBhhhhBEEEhhBBhhhhhhNdtcl2:  ",
"  ya9etdNhhBhhhhhEBEhhhhhhhhhhhhhBBEhhhhEEhBhhhEBBBBhhhhBhhBhhhhhEBEhhhhhhhhhhhhhBBEhhhhEEhNdteKay  ",
"  :29etdghBBhhhhhBBBBhBBhhhBBhhhhBEEhhhEBEhhhhhBhBhhhhhhhhBBhhhhhBBBBhBBhhhBBhhhhBEEhhhEBEhgdtel2y  ",
"  :29ebmNhBBhBhhhhBhhhBhhhhEBBhhhhhhhhhBBBhhBBhhhhhhhhBBBhBBhBhhhhBhhhBhhhhEBBhhhhhhhhhBBBhgmbe92:  ",
"  :29etmNBhhBBhhhhhhhhhhhhhEEBhhhhhEEhhhBBhhBhhhhhhhhhhBBBhhBBhhhhhhhhhhhhhEEBhhhhhEEhhhBBhgmte92:  ",
"  :29etdNBhBBhhBBhhhhhBBBhhhhhhhhhEEBEEhhhhhhhhBBhhhhhhhBBhBBhhBBhhhhhBBBhhhhhhhhhEEBEEhhhhgdtela:  ",
"  y29etdghhBBhhBhhhhhBBBhhhhhBBhhhhhEBBBhBBhhhhhBhBhhhhhhhhBBhhBhhhhhBBBhhhhhBBhhhhhEBBBhBBgdte9a:  ",
"  :29cbdghhhhhhhhBBhhBBhhhhhhBhhhBBhhBhBhhBhhEhhhhhhhBBhhhhhhhhhhBBhhBBhhhhhhBhhhBBhhBhBhhBgdIe92:  ",
"  :29ebdgBBBhhhhhBBBhhhhhhBBhhhhhhBhhhhhhhhhEEhhhEhhhhBhhBBBhhhhhBBBhhhhhhBBhhhhhhBhhhhhhhhgYIe92A  ",
"  :a9etdNBBhhBBhhhBBhBBBBhhBhhhBhhhhhhhhhhhEBEhhEBhBhhhhBBBhhBBhhhBBhBBBBhhBhhhBhhhhhhhhhhhRmIe9Fy  ",
"  :alctdNBhhhBhhhhhhhBBhhhhhhhBBhhEEEEhhhhhEBEhBBBhBBBhhBBhhhBhhhhhhhBBhhhhhhhBBhhEEEEhhhhhRmIelay  ",
"  :2lcbdghhhhhhhhhBBhhhhhhBBBhBBhBhEBBBhhhBBBBhBhBhhBBBhhhhhhhhhhhBBhhhhhhBBBhBBhBhEBBBhhhBNmbel2y  ",
"  :29cbdNBBBhEEEhhBhhhhBBhhBBBhhBBhhEBhhhhBhBBhhhBhhhBBhBBBBhEEEhhBhhhhBBhhBBBhhBBhhEBhhhhBgmbe92y  ",
"  :29etdNBhhEBEhhhhhBBhhBhhhBBhBBhhhhhhhhhBhBhhhhhhhhhhhBBhhEBEhhhhhBBhhBhhhBBhBBhhhhhhhhhBgmte92:  ",
"  y29eIdghhEBBhhhBBhhBhhhhhhhhhBBhhhhhhhhhhhhhEEEEBhhhEhhhhEBBhhhBBhhBhhhhhhhhhBBhhhhhhhhhhgdtPKFA  ",
"  y29eIYRhhBhBhhhhBhhhhEEEhhhhhhhBBhEEEEEhhhhEBBEhBhhhEEEhhBhBhhhhBhhhhEEEhhhhhhhBBhEEEEEhhgdIclF:  ",
"  :29eImNEhhBhhBBhhhhhhBBEhhhhhhhBhhhEBBBEhhEBBEhhhhhhEBBEhhBhhBBhhhhhhBBEhhhhhhhBhhhEBBBEhgYbcK2:  ",
"  ya9etmgBhhhhhBhhEEEhhhBEhhEEEBhhhhhhEBBBEhBhBBhhBBhhhBhBhhhhhBhhEEEhhhBEhhEEEBhhhhhhEBBBEgmtcl2:  ",
"  y2lctmgBhhBBhhhhEBBhhhhhhEEBBBBhhBBhhBhBBhhhBhhhBhBBhBhBhhBBhhhhEBBhhhhhhEEBBBBhhBBhhBhBBgdtc92:  ",
"  :29ctdghhhBhhBhhEBhhBhhhhhhhEBBhhhBhhBhhBhhhhhhhhhhBhhhhhhBhhBhhEBhhBhhhhhhhEBBhhhBhhBhhBgdte92:  ",
"  :29etdghhhhhBBhhhhhhBBhBBhhhhhhhhhhhhhhhhhhEEEEEhhhhhhhhhhhhBBhhhhhhBBhBBhhhhhhhhhhhhhhhhgdIPKFA  ",
"  :2lctdghBBBhBBhBhhEBhhhhBhhBBBhBBhhBBBhhhBBBBEEhhhBBhhhhBBBhBBhBhhEBhhhhBhhBBBhBBhhBBBhhhNmbcKF:  ",
"  ya9ctmNhhBBBhhBBhhEBBhhhhhBBBhhBhhEBBhhhhhhBEhhhBBhBhBBhhBBBhhBBhhEBBhhhhhBBBhhBhhEBBhhhhgdbP92:  ",
"  y29etdNhhhBhhBBhhhEEEhBBhhBBhhhhhEBBBBBhhBBBhhhBBhhhhhBhhhBhhBBhhhEEEhBBhhBBhhhhhEBBBBBhhNmbe92y  ",
"  :29cbdghhhhhhBBhhhhhhhBBBhhhhhhhEEEEBhhhBhhhhhhhhhhBBhhhhhhhhBBhhhhhhhBBBhhhhhhhEEEEBhhhBgdte92:  ",
"  :29ctdgEEEhhhhhhhhBBhhhBBhBBBBhhhhhhhhhhBhhEEEEhhhhBhhhEEEhhhhhhhhBBhhhBBhBBBBhhhhhhhhhhBgdIPKF:  ",
"  ya9etdghEBEhhBBhhhhBhhhhhhBBhhhhhhhhhhBBhhhhEEBBBBhhhhhhEBEhhBBhhhhBhhhhhhBBhhhhhhhhhhBBhgdtPKay  ",
"  :29cbdghEBEhhBhhEEhhhhhBBhhhhhhhBBhBBhhBhBBhhhBhhhhBBhhhEBEhhBhhEEhhhhhBBhhhhhhhBBhBBhhBhNmte9a:  ",
"  :29ctmNhhBBEhhhEBEhhBBhhBhhhhEEBBBhhBhhhhBhBBhhhhhhBhBBhhBBEhhhEBEhhBBhhBhhhhEEBBBhhBhhhhNdbc92:  ",
"  :29etdNhhBhBhhBBEhhhBhhhhhhhEBEEBBhhhhhhhhhhBhhhhhhhhhBhhBhBhhBBEhhhBhhhhhhhEBEEBBhhhhhhhgdtc92:  ",
"  :aletdghhBhBhBBBhhhhhhBBhBhEEEhhhhhhhEEBhBBhhhhhhBBhhhhhhBhBhBBBhhhhhhBBhBhEEEhhhhhhhEEBhNmte92:  ",
"  :a9eIYRhhhhhBBhBhhhBBhBhhBhhhhBBhhhhhEBBhBhBEEhhhBhhEEEhhhhhBBhBhhhBBhBhhBhhhhBBhhhhhEBBhNdbPK2:  ",
"  :2letYNEhhBhhBhBhhhhBhhhhBhhhhBhhhBhhBBhhhhBBEhhhhBhhEBEhhBhhBhBhhhhBhhhhBhhhhBhhhBhhBBhhgdbcK2:  ",
"  :aletdRBBBBhhhhhhhhhhhhhhhhhhhhhhBBhhhhhhBhhBBhhhBBhhhEBBBBhhhhhhhhhhhhhhhhhhhhhhBBhhhhhhNdtcl2:  ",
"  :29etdNBhhhhBBEEEhhBBhhBBBhhhBBBhBBhBhhhhhhhhhhhhhhhhhBBhhhhBBEEEhhBBhhBBBhhhBBBhBBhBhhhhgdte92:  ",
"  :2lctdghhhBBhBBEEEhhBhBBBhhBhhBBBhhBBhhBBhhhhhhBhhBBhhhhhhBBhBBEEEhhBhBBBhhBhhBBBhhBBhhBBgdte92y  ",
"  :2letYNBhhhhBEhhhhBBhhBBhhhBBhhBBhBBhhhEBBhBBhhBhhBhhEBBhhhhBEhhhhBBhhBBhhhBBhhBBhBBhhhEBNdbc92y  ",
"  :a9eImNhhhhhhhhhhhBBBhhhhhhhhhhhhhBBhhhEEBhBBBhhhBhhEBBhhhhhhhhhhhBBBhhhhhhhhhhhhhBBhhhEENdbcl2:  ",
"  y29PbYNBhBBhBBhBBhhBBhBBBBhhhBBhhhhhhBBhhhhhBBhBBhhEBEBBhBBhBBhBBhhBBhBBBBhhhBBhhhhhhBBhhgdtcl2y  ",
"  y29PIdghhhBhBhhhBhhhhhBBhhhhhBhhhhhhhhBhhhhhhhhBBhhEEhhhhhBhBhhhBhhhhhBBhhhhhBhhhhhhhhBhhgdte92y  ",
"  :2lctdNBhhhhhBBhhhhBhhhhhhhhhhhBBhhhhhhBBBhhBBhhhhBBhhBBhhhhhBBhhhhBhhhhhhhhhhhBBhhhhhhBBNdtcl2:  ",
"  :2letdgBhhBBhBhhhhBBhhhhhhhhBBhBhhBhhhBBBhhhBhhhhhBhhhhBhhBBhBhhhhBBhhhhhhhhBBhBhhBhhhBBBgdtc92:  ",
"  y29eIYRhhhhBhhBBBhBBhBhEEEEhBhhhhhhBhhBBhhhhhhhBBhhhEEEhhhhBhhBBBhBBhBhEEEEhBhhhhhhBhhBBhgdte92y  ",
"  :29eImNhhhhhhhhBBBhhBBhhEBEhhhEEEhhBBhhhhhhhhhBBhhhhEBBhhhhhhhhBBBhhBBhhEBEhhhEEEhhBBhhhhgdte9ay  ",
"  :29eImghhEEEhhhhBBhBBhhhhEBEhEBBEEhBBhBBBhBBBhBBhhhhEBhhhEEEhhhhBBhBBhhhhEBEhEBBEEhBBhBBBgmbc9ay  ",
"  :a9etdNBhBBEhhhhhhhBBhhhhEBBhEBBhhhhhhBBhhhBBBhhhBhhhhBBhBBEhhhhhhhBBhhhhEBBhEBBhhhhhhBBhgdbcl2:  ",
"  y2lctdNhhhBEhhhhhhhhhhhhhBhBhBhBhhhBBhhhhhhhBBhBBhBBhhBhhhBEhhhhhhhhhhhhhBhBhBhBhhhBBhhhhgdtcl2y  ",
"  y29ctdghhhhhhhhhhhhEEEEBhhhhhhhhhhhhBhhhBBhhhhhBBhhBhhhhhhhhhhhhhhhEEEEBhhhhhhhhhhhhBhhhBNdte92y  ",
"  ;14qrUTgggggggNNggggRRNggggNRRRggNNggggggNggNNgggggggRRgggggggNNggggRRNggggNRRRggNNggggggMsrxk1;  ",
"  8i29wrnddmdddddYmYdddddddddddddmmYddddYYdmdddYmmmmddddmddmdddddYmYdddddddddddddmmYddddYYdnrw9Gi8  ",
"  &:<30wrtbbtttttbbbbtbbtttbbttttbIItttIbItttttbtbttttttttbbtttttbbbbtbbtttbbttttbIItttIbItrw03p:7  ",
"  %=>1jlxecceceeeeceeeceeeePcceeeeeeeeeccceecceeeeeeeecccecceceeeeceeeceeeePcceeeeeeeeeccceqlj1>=%  ",
"  o&-><akl99ll9999999999999KKl99999KK999ll99l9999999999lll99ll9999999999999KKl99999KK999ll94a<>-&o  ",
"  X$&=:,pa2aa22aa22222aaa222222222FFaFF22222222aa2222222aa2aa22aa22222aaa222222222FFaFF22221,:=6#X  ",
"  OXo%&*;::yy::y:::::yyy:::::yy:::::Ayyy:yy:::::y:y::::::::yy::y:::::yyy:::::yy:::::Ayyy:yy;*&%o+.  ",
"                                                                                                    ",
"                                                                                                    "
};
