/* XPM */
static char *_fea95653a12424a93769d405dfa9c14t4vvwm3AouHlUR4b[] = {
/* columns rows colors chars-per-pixel */
"74 32 141 2 ",
"   c None",
".  c black",
"X  c #090605",
"o  c #282727",
"O  c #2A2929",
"+  c #2F2E2E",
"@  c #302E2D",
"#  c #353432",
"$  c #353433",
"%  c #353434",
"&  c #373636",
"*  c #393837",
"=  c #3D3A35",
"-  c #393838",
";  c #3B3A39",
":  c #3C3B3A",
">  c #3D3C3B",
",  c #3F3E3D",
"<  c #403F3E",
"1  c #42403D",
"2  c #42403F",
"3  c #42413F",
"4  c #45423F",
"5  c #424140",
"6  c #434140",
"7  c #434240",
"8  c gray27",
"9  c #484542",
"0  c #484642",
"q  c #494643",
"w  c #4A4844",
"e  c #4C4A47",
"r  c #4C4A48",
"t  c #4F4E4B",
"y  c #4F4E4D",
"u  c #514F4C",
"i  c #51504D",
"p  c #52504D",
"a  c #53504D",
"s  c #525150",
"d  c #545250",
"f  c #595753",
"g  c #595755",
"h  c #5B5956",
"j  c #5C5A56",
"k  c #5D5A56",
"l  c #595858",
"z  c #5B5B5B",
"x  c #5C5A58",
"c  c #5D5B58",
"v  c #5F5D59",
"b  c #5E5D5A",
"n  c #5F5D5B",
"m  c #605F5B",
"M  c #615F5B",
"N  c #62605C",
"B  c #63615C",
"V  c #63615D",
"C  c #656360",
"Z  c #646361",
"A  c #656460",
"S  c #656461",
"D  c #666562",
"F  c #676562",
"G  c #666563",
"H  c #676663",
"J  c #676664",
"K  c #676665",
"L  c #686765",
"P  c #696765",
"I  c #696866",
"U  c #6D6B67",
"Y  c #6B6A68",
"T  c #6C6B68",
"R  c #6D6C69",
"E  c #6F6E6C",
"W  c #71706D",
"Q  c #73716E",
"!  c #777573",
"~  c #787775",
"^  c #7B7976",
"/  c #7B7A7A",
"(  c #7E7C79",
")  c #807E7B",
"_  c #817F7C",
"`  c #82807D",
"'  c #82817E",
"]  c #83817E",
"[  c #83817F",
"{  c #83827F",
"}  c #84827E",
"|  c #84827F",
" . c #85827F",
".. c #85837F",
"X. c #858380",
"o. c #868481",
"O. c #898785",
"+. c #898885",
"@. c #8B8986",
"#. c #8C8B88",
"$. c #908F8C",
"%. c #95928D",
"&. c #9D9A94",
"*. c #989898",
"=. c gray60",
"-. c #9B9A9A",
";. c #9C9B9B",
":. c #9D9D9D",
">. c #A39F97",
",. c #A6A29B",
"<. c #A7A39B",
"1. c #A7A6A6",
"2. c #A7A7A7",
"3. c #A9A6A5",
"4. c #B1ACA4",
"5. c #BCB7AF",
"6. c #B1B1B1",
"7. c #B5B4B3",
"8. c #B6B5B4",
"9. c #B9B7B3",
"0. c #BEB9B1",
"q. c gray78",
"w. c #CECBC5",
"e. c #CECDCD",
"r. c #CFCECD",
"t. c gray81",
"y. c gray83",
"u. c gainsboro",
"i. c #DDDDDC",
"p. c gray87",
"a. c #DFDFDF",
"s. c #E1E1E0",
"d. c #E3E3E2",
"f. c gray89",
"g. c #E4E3E1",
"h. c #E5E5E4",
"j. c #E7E6E6",
"k. c #E7E7E7",
"l. c #E9E9E9",
"z. c #EAEAEA",
"x. c gray92",
/* pixels */
"                                                                                                                                                    ",
"                                                                                                                                                    ",
"                                                                                                                                                    ",
"                                                                                                                                                    ",
"                                                                                                                                                    ",
"                                                                                                                                                    ",
"                                                                                                                                                    ",
"                                                                                                                                                    ",
"                                                                                                                                                    ",
"                                                                                                                                                    ",
"                                            5.0.                                                                                                    ",
"                                            w.4.>.                                                                                                  ",
"                                            g.,.,.%.                                                                                                ",
"                                              9.&.&.X.  k.                                                                                          ",
"                                    t.7.7.7.8.$.` ` ..` ..                                                                                          ",
"                                  +.o.................................O.O.                                                                          ",
"                                ) ........................................_ +.k.                                                                    ",
"                              ` E Y Y Y Y Y Y Y Y Y Y Y Y Y Y Y Y Y Y ( ` ` ` #.    s.                                                              ",
"                            J J P P P P P P P P P P P P P P P P P P P P J J J J P ^ !                                                               ",
"      H R T     u.        H P P P P P P P P P P P P P P P P P P P P P P P P P P P P P H C                                                           ",
"      n H H H J P ~   H H H H H H H H H H H H H H H H H H H H H H H H H H H P P P I 2 3.H P                                                         ",
"        k V V V V V n V V V V V V V V V V V V V V V V V V V V V V V V V V V C C C H f p H C M                                                       ",
"            U V V V M M M M M W H M M M M M M M M M M M M M M M M M M M M M M M M M M M M M M V W                                                   ",
"                k h u p p 0   s.    4 0 0 0 p p p p p p p p p p p p p p p p p p p p p p p p p p p e 0 =                                             ",
"              z.w p p p c                 k.g n y 5 5 5 5 5 5 5 5 2 2 5 5 5 5 5 5 5 5 5 5 5 5 5 s s                                                 ",
"              c t r , -                           =.;.;.;.> , , : + =.=.;.;.;.;.;.;.;.;.;.;.;.:.                                                    ",
"              d 2 , @                                   6.> , > X y.                                                                                ",
"              < , - 8 z.                                / : O % t.                                                                                  ",
"          u.$ , * % u.                                s.l . 1.t.                                                                                    ",
"          u.$ o % z.                                  q.l                                                                                           ",
"          z.1.1.u.                                                                                                                                  ",
"                                                                                                                                                    "
};
