/* XPM */
static char *d4b8f514f01240ffef5b0059b2ef1da16ISxhrFmvG6JzZbR[] = {
/* columns rows colors chars-per-pixel */
"48 48 116 2 ",
"   c None",
".  c gray13",
"X  c #222222",
"o  c gray16",
"O  c #2B2E2C",
"+  c #353535",
"@  c gray21",
"#  c #373B38",
"$  c #56391B",
"%  c #5F3E18",
"&  c #603E19",
"*  c #603F19",
"=  c #6B4828",
"-  c #744F2D",
";  c #414141",
":  c #434744",
">  c #4B4B4B",
",  c #515151",
"<  c #535454",
"1  c gray33",
"2  c #555555",
"3  c #555655",
"4  c #565656",
"5  c #585A59",
"6  c #5A5C5B",
"7  c #5A5D5B",
"8  c #5B5E5C",
"9  c gray36",
"0  c #6D594C",
"q  c #7B5C45",
"w  c #73685C",
"e  c #796E5F",
"r  c #5E6360",
"t  c #5F6460",
"y  c #5D6660",
"u  c #616763",
"i  c #636A66",
"p  c #656D68",
"a  c #676F6A",
"s  c #6C6C6C",
"d  c #657069",
"f  c #68726C",
"g  c #69726C",
"h  c #6B756E",
"j  c #6C766F",
"k  c #7C7565",
"l  c #6C7670",
"z  c #6C7870",
"x  c #6F7B73",
"c  c #6F7B74",
"v  c #6F7C74",
"b  c #727272",
"n  c #727A71",
"m  c #707B74",
"M  c #707C74",
"N  c gray49",
"B  c #96622D",
"V  c #95622E",
"C  c #96622E",
"Z  c #96632E",
"A  c #A0692F",
"S  c #A36D38",
"D  c #816952",
"F  c #A9774A",
"G  c #857662",
"H  c #8D7B65",
"J  c #DD9139",
"K  c #DD913A",
"L  c #E29339",
"P  c #988469",
"I  c #9C866A",
"U  c #88817C",
"Y  c #8C827C",
"T  c #A38B7B",
"R  c #A39277",
"E  c #B59974",
"W  c #BC9F77",
"Q  c #B99E7A",
"!  c #BBA07D",
"~  c #DEAB74",
"^  c gray51",
"/  c gray53",
"(  c gray56",
")  c #919591",
"_  c #989898",
"`  c gray62",
"'  c #9F9F9F",
"]  c #AC9C93",
"[  c #BCA683",
"{  c #B1A58B",
"}  c gray66",
"|  c #B7AAA0",
" . c #ABB0AD",
".. c #B1B1B1",
"X. c gray70",
"o. c #B3B4B3",
"O. c #B4B4B4",
"+. c gray71",
"@. c #CCB692",
"#. c #CDB793",
"$. c #DBBF97",
"%. c #D4C19E",
"&. c #DBC19A",
"*. c #DBC39D",
"=. c #DAC49F",
"-. c #CAC0AC",
";. c #D9C8A5",
":. c #D9C9A5",
">. c #D2C4A9",
",. c #CAC1BB",
"<. c gray79",
"1. c #DADADA",
"2. c gray87",
"3. c #DFDFDF",
"4. c gray93",
"5. c #EEEEEE",
/* pixels */
"                                                                                                ",
"                            4.                                                                  ",
"                          4.4.                                                                  ",
"                          4.4.                                                                  ",
"                          4.4.                                                                  ",
"                          4.4.                                                                  ",
"                            4.                                                                  ",
"                              4.                                                                ",
"                              4.                                                                ",
"                              4.4.                                                              ",
"                              4.4.4.                                                            ",
"                              4.4.4.                                                            ",
"                              4.4.4.                    M M o.1.4.                              ",
"                              4.4.4.                  a f f ' <.2.                              ",
"                                4.4.4.              2 2 2 2 < _ +.                              ",
"                                4.4.4.              2 2 2 2 E Q !                               ",
"                                4.4.4.              2 2 w P @.@.@.                              ",
"                                4.4.4.              2 2 G W ;.=.&.                              ",
"                                4.4.4.              2 2 G W ;.~ L                               ",
"                                4.4.4.              2 I [ %.;.*.$.                              ",
"                                  4.4.              2 H R { -.>.                                ",
"                                    4.4.      c x l 2 2 2 2 X.                                  ",
"                                    4.4. .m m m i 2 2 2 2 2 X.+.+.                              ",
"                                    4.4.| D r r 6 2 2 ( ' ' +.+.+.                              ",
"                                  ,.2.2.] q 2 2 s N N } +.+.+.+.+.                              ",
"                                B T +.+.^ 2 2 2 ( +.+.+.+.+.+.+.+.                              ",
"                                n ) +.+.X.X.X.X.( 9 9 9 9 9 9                                   ",
"                                      Y Y U N / b 2 2 u a a                                     ",
"                                      % * $ . > , 2 8 h x d                                     ",
"                                        % *   . ; 5 M M y .                                     ",
"                                              . o @ 6 : #                                       ",
"                                              = = - F S A                                       ",
"                                              B B A K K K                                       ",
"                                              B B B B B B                                       ",
"                                              0 0 0 0 e k                                       ",
"                                              2 2 2 y j M                                       ",
"                                              2 2 5 v m m c                                     ",
"                                              2 2           m                                   ",
"                                              2               M                                 ",
"                                              2               m x                               ",
"                                            2 2 2             m c                               ",
"                                        2 2                       m                             ",
"                                        2 2                       m                             ",
"                                        2 2                       x                             ",
"                                        2 2                       m                             ",
"                                        @ @                         O                           ",
"                                                                    .                           ",
"                                                                                                "
};
