/* XPM */
static char *cd492c186afb45c882b9c3d9e0b1bb6cntxzgaPFu85gT9Qw[] = {
/* columns rows colors chars-per-pixel */
"74 32 11 1 ",
"  c #232222",
". c #2A2622",
"X c #3F3E3D",
"o c #52504D",
"O c #63615D",
"+ c #686765",
"@ c #84827F",
"# c #A6A29B",
"$ c #B7B2A9",
"% c #CBC7C7",
"& c white",
/* pixels */
"&&&&&&&&&&&&&&&&&&&&&&&&&&&&&&&&&&&&&&&&&&&&&&&&&&&&&&&&&&&&&&&&&&&&&&&&&&",
"&&&&&&&&&&&&&&&&&&&&&&&&&&&&&&&$$$&&&&&&&&&&&&&&&&&&&&&&&&&&&&&&&&&&&&&&&&",
"&&&&&&&&&&&&&&&&&&&&&&&&&&&&&&&$$$##&&&&&&&&&&&&&&&&&&&&&&&&&&&&&&&&&&&&&&",
"&&&&&&&&&&&&&&&&&&&&&&&&&&&&&&&&$####&&&&&&&&&&&&&&&&&&&&&&&&&&&&&&&&&&&&&",
"&&&&&&&&&&&&&&&&&&&&&&&&&&&&&&&&####@@&&&&&&&&&&&&&&&&&&&&&&&&&&&&&&&&&&&&",
"&&&&&&&&&&&&&&&&&&&&&&&&&&&&&&&&&####@@&&&&&&&&&&&&&&&&&&&&&&&&&&&&&&&&&&&",
"&&&&&&&&&&&&&&&&&&&&&&&&&&&&&&&&&@@@@@@@@&&&&&&&&&&&&&&&&&&&&&&&&&&&&&&&&&",
"&&&&&&&&&&&&&&&&&&&&&&&&&&@@@@@@@@@@@@@@@@@@@@@@@@&&&&&&&&&&&&&&&&&&&&&&&&",
"&&&&&&&&&&&&&&&&&&&&&&&&@@@@@@@@@@@@@@@@@@@@@@@@@@@@@&&&&&&&&&&&&&&&&&&&&&",
"&&&&&&&&&&&&&&&&&&&&&&@@@@@@@@@@@@@@@@@@@@@@@@@@@@@@@@@&&&&&&&&&&&&&&&&&&&",
"&&&&&&&&&&&&&&&&&&&&&@@@@@@@@@@@@@@@@@@@@@@@@@@@@@@@@@@@&&&&&&&&&&&&&&&&&&",
"&&&&&&&&&&&&&&&&&&&&@@@+++++++++++++++++++++++++++@@@@@@@@@@&&&&&&&&&&&&&&",
"&&&&&&&&&&&&&&&&&&&+++++++++++++++++++++++++++++++++++++++@@@&&&&&&&&&&&&&",
"&&&&@@@@@&&&&&&&&&++++++++++++++++++++++++++++++++++++++++++++++&&&&&&&&&&",
"&&&&+++++@@@&&&&+++++++++++++++++++++++++++++++++++++++++++++++++&&&&&&&&&",
"&&&&++++++++++&+++++++++++++++++++++++++++++++++++++++++++++.%++++&&&&&&&&",
"&&&&OOOOOOOOOOOOOOOOOOOOOOOOOOOOOOOOOOOOOOOOOOOOOOOOOO++++++..+++++&&&&&&&",
"&&&&&OOOOOOOOOOOOOOOOOOOOOOOOOOOOOOOOOOOOOOOOOOOOOOOOOOOOOOOOOOOOOOO&&&&&&",
"&&&&&&&OOOOOOOOOOOOOOOOOOOOOOOOOOOOOOOOOOOOOOOOOOOOOOOOOOOOOOOOOOOOOOO&&&&",
"&&&&&&&&&OOOOOoooooooo&ooooooooooooooooooooooooooooooooooooooooooooooooooo",
"&&&&&&&&&&&Ooooooooo&&&&&ooooooooooooooooooooooooooooooooooooooooooooooooo",
"&&&&&&&&&&&oooooooo&&&&&&&&&&&&oooXXXXXXXXXXXXXXXXXXXXXXXXXXXXXXXXXXXXXX&&",
"&&&&&&&&&&ooooXXX&&&&&&&&&&&&&&&&&&XXXXXXXXXXXX   XXXXXXXXXXXXXXXXXX&&&&&&",
"&&&&&&&&&&ooXXXX &&&&&&&&&&&&&&&&&&&&&&&&XXXXX  &&&&&&&&&&&&&&&&&&&&&&&&&&",
"&&&&&&&&&ooXXXX &&&&&&&&&&&&&&&&&&&&&&&&XXXXX  &&&&&&&&&&&&&&&&&&&&&&&&&&&",
"&&&&&&&&&oXXXX  &&&&&&&&&&&&&&&&&&&&&&&&XXX   &&&&&&&&&&&&&&&&&&&&&&&&&&&&",
"&&&&&&&&oXXXX  &&&&&&&&&&&&&&&&&&&&&&&&&X    &&&&&&&&&&&&&&&&&&&&&&&&&&&&&",
"&&&&&&&&XXXX  &&&&&&&&&&&&&&&&&&&&&&&&&X   &&&&&&&&&&&&&&&&&&&&&&&&&&&&&&&",
"&&&&&&&&XX   &&&&&&&&&&&&&&&&&&&&&&&&&&  &&&&&&&&&&&&&&&&&&&&&&&&&&&&&&&&&",
"&&&&&&&&X   &&&&&&&&&&&&&&&&&&&&&&&&&&&&&&&&&&&&&&&&&&&&&&&&&&&&&&&&&&&&&&",
"&&&&&&&&&&&&&&&&&&&&&&&&&&&&&&&&&&&&&&&&&&&&&&&&&&&&&&&&&&&&&&&&&&&&&&&&&&",
"&&&&&&&&&&&&&&&&&&&&&&&&&&&&&&&&&&&&&&&&&&&&&&&&&&&&&&&&&&&&&&&&&&&&&&&&&&"
};
