/* XPM */
static char * p_sprite_xpm[] = {
"74 32 195 2",
"  	c None",
". 	c #FFFFFF",
"+ 	c #FBFBFB",
"@ 	c #BCB7AF",
"# 	c #BEB9B1",
"$ 	c #F7F7F7",
"% 	c #FCFCFC",
"& 	c #FDFDFD",
"* 	c #CECBC5",
"= 	c #B1ACA4",
"- 	c #A39F97",
"; 	c #CAC7C4",
"> 	c #FFFFFE",
", 	c #E4E3E1",
"' 	c #A7A39B",
") 	c #A6A29B",
"! 	c #95928D",
"~ 	c #ADACAB",
"{ 	c #B9B7B3",
"] 	c #9D9A94",
"^ 	c #858380",
"/ 	c #B8B8B6",
"( 	c #E5E5E4",
"_ 	c #CFCECD",
": 	c #B5B4B3",
"< 	c #B6B5B4",
"[ 	c #908F8C",
"} 	c #83827F",
"| 	c #83817F",
"1 	c #84827F",
"2 	c #83817E",
"3 	c #84827E",
"4 	c #B6B5B3",
"5 	c #B4B3B1",
"6 	c #F2F2F2",
"7 	c #F9F9F9",
"8 	c #EEEEEE",
"9 	c #898885",
"0 	c #868481",
"a 	c #898785",
"b 	c #D3D3D2",
"c 	c #F3F3F2",
"d 	c #ABAAA8",
"e 	c #807E7B",
"f 	c #85837F",
"g 	c #85827F",
"h 	c #817F7C",
"i 	c #8B8986",
"j 	c #E7E6E6",
"k 	c #9D9C9A",
"l 	c #82807D",
"m 	c #6F6E6C",
"n 	c #6B6A68",
"o 	c #7E7C79",
"p 	c #82817E",
"q 	c #8C8B88",
"r 	c #979593",
"s 	c #969592",
"t 	c #E3E3E2",
"u 	c #FCFCFB",
"v 	c #DBDBDA",
"w 	c #DCDCDB",
"x 	c #F6F6F6",
"y 	c #F8F8F8",
"z 	c #9A9A99",
"A 	c #676664",
"B 	c #676665",
"C 	c #686765",
"D 	c #7B7976",
"E 	c #777573",
"F 	c #D5D5D5",
"G 	c #D6D6D6",
"H 	c #F5F5F4",
"I 	c #676663",
"J 	c #6D6C69",
"K 	c #6C6B68",
"L 	c #9C9B99",
"M 	c #AAA9A8",
"N 	c #DDDDDC",
"O 	c #FEFEFE",
"P 	c #B8B8B7",
"Q 	c #929291",
"R 	c #666563",
"S 	c #646361",
"T 	c #A2A1A1",
"U 	c #F4F4F4",
"V 	c #5F5D5B",
"W 	c #696765",
"X 	c #787775",
"Y 	c #C6C6C5",
"Z 	c #666562",
"` 	c #696866",
" .	c #42403D",
"..	c #A9A6A5",
"+.	c #AAAAA9",
"@.	c #ABAAA9",
"#.	c #5D5A56",
"$.	c #63615D",
"%.	c #63615C",
"&.	c #5F5D59",
"*.	c #656360",
"=.	c #656460",
"-.	c #595753",
";.	c #53504D",
">.	c #656461",
",.	c #605F5B",
"'.	c #A8A7A6",
").	c #7F7E7B",
"!.	c #6D6B67",
"~.	c #615F5B",
"{.	c #71706D",
"].	c #676562",
"^.	c #62605C",
"/.	c #73716E",
"(.	c #D2D1D1",
"_.	c #D6D5D5",
":.	c #5C5A56",
"<.	c #5B5956",
"[.	c #514F4C",
"}.	c #52504D",
"|.	c #484642",
"1.	c #B7B7B6",
"2.	c #E1E1E0",
"3.	c #C9C9C8",
"4.	c #A4A3A2",
"5.	c #45423F",
"6.	c #494643",
"7.	c #4C4A47",
"8.	c #484542",
"9.	c #3D3A35",
"0.	c #EBEBEB",
"a.	c #4A4844",
"b.	c #51504D",
"c.	c #5C5A58",
"d.	c #C7C7C7",
"e.	c #FAFAFA",
"f.	c #EDEDED",
"g.	c #EEEEED",
"h.	c #E7E7E7",
"i.	c #595755",
"j.	c #5E5D5A",
"k.	c #4F4E4D",
"l.	c #424140",
"m.	c #434140",
"n.	c #42413F",
"o.	c #434240",
"p.	c #525150",
"q.	c #737372",
"r.	c #F0EFEF",
"s.	c #5D5B58",
"t.	c #4F4E4B",
"u.	c #4C4A48",
"v.	c #3F3E3D",
"w.	c #393838",
"x.	c #999999",
"y.	c #9C9B9B",
"z.	c #3D3C3B",
"A.	c #3C3B3A",
"B.	c #2F2E2E",
"C.	c #989898",
"D.	c #9B9A9A",
"E.	c #9D9D9D",
"F.	c #C4C3C3",
"G.	c #545250",
"H.	c #42403F",
"I.	c #302E2D",
"J.	c #C5C5C5",
"K.	c #B1B1B1",
"L.	c #090605",
"M.	c #D4D4D4",
"N.	c #969695",
"O.	c #403F3E",
"P.	c #3B3A39",
"Q.	c #454545",
"R.	c #E9E9E9",
"S.	c #7B7A7A",
"T.	c #2A2929",
"U.	c #373636",
"V.	c #CECDCD",
"W.	c #DCDCDC",
"X.	c #353432",
"Y.	c #393837",
"Z.	c #353434",
"`.	c #DFDFDF",
" +	c #E3E3E3",
".+	c #595858",
"++	c #000000",
"@+	c #A7A7A7",
"#+	c #CFCFCF",
"$+	c #353433",
"%+	c #282727",
"&+	c #5B5B5B",
"*+	c #EAEAEA",
"=+	c #A7A6A6",
"-+	c #DEDEDE",
"                                                                                                                                                    ",
"                                                                                                                                                    ",
"                                                                                                                                                    ",
"                                                                                                                                                    ",
"                                                                                                                                                    ",
"                                                                                                                                                    ",
"                                                                                                                                                    ",
"                                                                                                                                                    ",
"                                                                                                                                                    ",
". . . . . . . . . . . . . . . . . . . . . . . . . . . . . . . . . . . . . . . . . . . . . . . . . . . .                                             ",
". . . . . . . . . . . . . . . . . . . . . + @ # $ % . . . . . . . . . . . . . . . . . . . . . . . . . .                                             ",
". . . . . . . . . . . . . . . . . . . . . & * = - ; > . . . . . . . . . . . . . . . . . . . . . . . . .                                             ",
". . . . . . . . . . . . . . . . . . . . . . , ' ) ! ~ . . . . . . . . . . . . . . . . . . . . . . . . .                                             ",
". . . . . . . . . . . . . . . . . . . . . . . { ] ] ^ / ( . . . . . . . . . . . . . . . . . . . . . . .                                             ",
". . . . . . . . . . . . . . . . . . _ : : : < [ } | 1 2 3 4 : : : : 5 6 . . . . . . . . . . . . . . . .                                             ",
". . . . . . . . . . . . . . . 7 8 9 0 1 1 1 1 1 1 1 1 1 1 1 1 1 1 1 1 a a b c . . . . . . . . . . . . .                                             ",
". . . . . . . . . . . . . . + d e f 1 1 1 1 1 1 1 1 1 1 1 1 1 1 1 1 g 1 1 h i j . . . . . . . . . . . .                                             ",
". . . . . . . . . . . . . % k l m n n n n n n n n n n n n n n n n n n o p p p q r s t . . . . . . . . .                                             ",
". . u v w v x . . . . . y z A B C C C C C C C C C C C C C C C C C C C C B B B B C D E F G & . . . . . .                                             ",
". . H I J K L M N O . P Q R C C C C C C C C C C C C C C C C C C C C C C C C C C C C C I S T . . . . . .                                             ",
". . U V I I I A W X Y Z I I I I I I I I I I I I I I I I I I I I I I I I I I C C C `  ...R C +.+ . . . .                                             ",
". . + @.#.$.$.$.$.%.&.$.$.$.$.$.$.$.$.$.$.$.$.$.$.$.$.$.$.$.$.$.$.$.$.$.$.$.*.*.*.=.-.;.>.*.,.'.. . . .                                             ",
". . . % x ).!.$.$.$.~.~.~.~.~.{.].~.~.~.~.~.~.~.~.~.~.~.~.~.~.~.~.~.~.~.~.~.~.~.~.~.~.~.~.~.~.^./.(.U U                                             ",
". . . . . . _.: :.<.[.}.}.|.1.2.3.4.5.|.|.6.}.}.}.}.}.}.}.}.}.}.}.}.}.}.}.}.}.}.}.}.}.}.}.}.}.}.}.7.8.9.                                            ",
". . . . . . . 0.a.}.b.}.c.d.O . . e.f.g.g.h.i.j.k.l.m.m.m.m.m.m.m.n.n.l.m.m.m.m.m.m.m.m.m.m.m.o.p.p.q.r.                                            ",
". . . . . . . s.t.u.v.w.. . . . . . . . . . . . f.x.y.y.y.z.v.v.A.B.C.D.y.y.y.y.y.y.y.y.y.y.y.E.. . . .                                             ",
". . . . . . F.G.H.v.I.J.. . . . . . . . . . . . . . . . K.z.v.z.L.M.. . . . . . . . . . . . . . . . . .                                             ",
". . . . . + N.O.v.P.Q.R.. . . . . . . . . . . . . . . . S.A.T.U.V.. . . . . . . . . . . . . . . . . . .                                             ",
". . . . . W.X.v.Y.Z.`.. . . . . . . . . . . . . . . .  +.+++@+#+. . . . . . . . . . . . . . . . . . . .                                             ",
". . . . . W.$+%+Z.R.. . . . . . . . . . . . . . . . . d.&+U % . . . . . . . . . . . . . . . . . . . . .                                             ",
". . . . . *+=+=+-+. . . . . . . . . . . . . . . . . . . . . . . . . . . . . . . . . . . . . . . . . . .                                             ",
". . . . . . . . . . . . . . . . . . . . . . . . . . . . . . . . . . . . . . . . . . . . . . . . . . . .                                             "};
