/* XPM */
static char *_187002844a243f783205aba06693bccu8m2ukL2rNklyIdB[] = {
/* columns rows colors chars-per-pixel */
"64 64 40 1 ",
"  c None",
". c #2B1C1D",
"X c #36260A",
"o c #3E2613",
"O c #281820",
"+ c #3A313A",
"@ c #38393A",
"# c #411E05",
"$ c #5C3812",
"% c #54321B",
"& c #723E2A",
"* c #7D4D2B",
"= c #293D4B",
"- c #454647",
"; c #7E7068",
": c #78797C",
"> c #9E3E37",
", c #8F4D14",
"< c #B3751A",
"1 c #9C653D",
"2 c #865E40",
"3 c #926C42",
"4 c #AE764B",
"5 c #867E7F",
"6 c #C39753",
"7 c #D9B75C",
"8 c #D28560",
"9 c #E6AD69",
"0 c #EAA377",
"q c #5187B3",
"w c #50D4EC",
"e c #9F9899",
"r c #9FA0A2",
"t c #B7AFAE",
"y c #C4B59F",
"u c #FDD5B7",
"i c #E5E6C7",
"p c #FBECE6",
"a c #F2F8F9",
"s c white",
/* pixels */
"                                                                ",
"                                                                ",
"                                                                ",
"                                                                ",
"                                                                ",
"                                                                ",
"                                                                ",
"                                                                ",
"                                                                ",
"                                                                ",
"                                                                ",
"                                                                ",
"                                                                ",
"                         X  X XXXX X  X                         ",
"                      X  XXXXX$,,$XXXXX  X                      ",
"                      XXX$$X$X,<<,X$X$$XXX                      ",
"                      X$X,$X,$,<<,$,X$,X$X                      ",
"                     X$$,<,$,<,,,,<,$,<,$$X                     ",
"                     X$,$,<,$<9,,9<$,<,$,$X                     ",
"                      X$,X,<$,<$$<,$<,X,$X                      ",
"                      X$,X,<$,<XX<,$<,X,$X                      ",
"                      X$,X,<$,<XX<,$<,X,$X                      ",
"                      O<$,X<X$<XX<$X<X,$<O                      ",
"                      O$<$>XXXXXXXXXX>$<$O                      ",
"                      X,$>uuuuuuuuuuuu>$,X                      ",
"                      O$,uuuuuuuuuuuuuu,$O                      ",
"                     O>8$uuuuuuuuuuuuu0$8>O                     ",
"                     Ou800uppuuuuuupp0008uO                     ",
"                     Ou8008>>0uuuu0>>8080uO                     ",
"                     Ouu80wOOw0uu0wOOw08uuO                     ",
"                      Ou80aOqauuuuaqOa08uO                      ",
"                       O80u==auuuua==u08O                       ",
"                    OOO8>8uuuuuuuuuuuu8>8OOO                    ",
"                   O>0uu8>0uuX,,,,Xuu0>8uu0>O                   ",
"                  O>0uuuu0>>X,<XX<,X>>0uuuu0>O                  ",
"                  O0upuu0000X<X>>X<X0000uupu0O                  ",
"                 O>uupppuuu0X<X00X<X0uuupppuu>O                 ",
"                 Ou8000upupppX8008Xpppupu0008uO                 ",
"                 Ou0upp0upppppp88ppppppu0ppu0uO                 ",
"                Ou0uppp80uppppp00pppppu08pppu0uO                ",
"                Ou0uppp>00uppu0000uppu00>pppu0uO                ",
"                O08uupO>80upppp00ppppu08>Opuu80O                ",
"                Ou00...O>80uppu88uppu08>O O800uO                ",
"                O0p.47s.O888008uu800888O  Ouup0O                ",
"                O>pu.4. O880u880088u088> OO8up>O                ",
"                 O0.7.OO>80@@@@@@@@@@08>OO0up0O                 ",
"                 O0.4+++@@@-:rrrrrr:-@@@Ouuup0O                 ",
"                 O.7+5ty++-::r-rr-r::-@%Ou>uu8O                 ",
"                 O.6+5;;yy++@rrrrrr@@@%0O>>uu>O                 ",
"                 .6.++5e;;yy++@rr@@%*%u0O00u8O                  ",
"                .6.OOO++5e;;yy++@1*1%u8p8OOOO                   ",
"               .67s.  O8++5e;;yi++%8uu8p8O                      ",
"                ...   O8u8++5e;;yi++808u8O                      ",
"                      OO8u8OOO5e;;yi++u8OO                      ",
"                      OoOOOOO ++5e;;ii++#O                      ",
"                      Oo&&#O    ++5e;;is++                      ",
"                     O#&&&&oO     ++5e;;is++                    ",
"                     O&222&#O      O++5e;;is+                   ",
"                    O#22222&O      O&2++5e;;i+                  ",
"                    O222222&O      O&222++5e;i+                 ",
"                    O&33332O        O23333++++                  ",
"                     OOOOOO          OOOOOO                     ",
"                                                                ",
"                                                                "
};
