/* XPM */
static char *_c441efd5b494fc8c8fbc9392fff9b040ml76WndrnnRhvoy[] = {
/* columns rows colors chars-per-pixel */
"48 48 88 1 ",
"  c #2F1A08",
". c #341E0B",
"X c #37200D",
"o c #39220F",
"O c #342010",
"+ c #3D2512",
"@ c #442B16",
"# c #482D17",
"$ c #492E18",
"% c #4D311B",
"& c #51341B",
"* c #593A1E",
"= c #513721",
"- c #563B25",
"; c #5C3C22",
": c #623F22",
"> c #4D423D",
", c #554134",
"< c #594234",
"1 c #59483F",
"2 c #664224",
"3 c #694526",
"4 c #6E4929",
"5 c #734D2C",
"6 c #77502E",
"7 c #79512F",
"8 c #765031",
"9 c #7C5432",
"0 c #7E5A3A",
"q c #6A5344",
"w c #65554D",
"e c #7A5C47",
"r c #765C4B",
"t c #7E5E48",
"y c #815733",
"u c #845935",
"i c #895D37",
"p c #855C3A",
"a c #8A5E39",
"s c #8C623E",
"d c #91633C",
"f c #97683F",
"g c #8D6542",
"h c #85654C",
"j c #8A664D",
"k c #87694F",
"l c #8C684F",
"z c #926641",
"x c #956A45",
"c c #996C45",
"v c #976D48",
"b c #926C4F",
"n c #966E4C",
"m c #9A6F4A",
"M c #9B704A",
"N c #9D714B",
"B c #9A714D",
"V c #9D734D",
"C c #9E744F",
"Z c #816450",
"A c #846651",
"S c #846955",
"D c #8A6A50",
"F c #8C6A50",
"G c #8E6C52",
"H c #906B50",
"J c #926F52",
"K c #936F54",
"L c #967153",
"P c #977254",
"I c #9F7551",
"U c #987355",
"Y c #9D7757",
"T c #93745C",
"R c #9F7A5C",
"E c #A59B95",
"W c #AE9F97",
"Q c #BDBCBC",
"! c #C0BFBF",
"~ c #C1C0BF",
"^ c #CDC3BE",
"/ c #CDC4BF",
"( c #DFDEDE",
") c #E5E1DF",
"_ c #E1E1E1",
"` c #F6F6F6",
"' c #FBFBFB",
"] c white",
/* pixels */
"]]]]]]]]]]]]]]]]]]]]]]]]]]]]]]]]]]]]]]]]]]]]]]]]",
"]]]]]]]]]]]]]]]]]]]]]]]]]]]]]]]]]]]]]]]]]]]]]]]]",
"]]]]]]]]]]]]]]]]]]]]]]]]]]]]]]]]]]]]]]]]]]]]]]]]",
"]]]]]]]]]]]]]]]]]]]]]]]]]]]]]]]]]]]]]]]]]]]]]]]]",
"]]]]]]]]]]]]]]']]]]]]]]]]]]]]]]]]']]]]]]]]]]]]]]",
"]]]]]]]]]]]]])AE]]]]]]]]]]]]]]]]WZ(]]]]]]]]]]]]]",
"]]]]]]]]]]]]]^91']]]]]]]]]]]]]]'h5Q]]]]]]]]]]]]]",
"]]]]]]]]]]]]]^x1`''''''''''''''`b5Q]]]]]]]]]]]]]",
"]]]]]]]]]]]]]^z&wjGjHKDtehllHHlqyyQ]]]]]]]]]]]]]",
"]]]]]]]]]]]]]^p+SnPcPcdcxLxzIYRAy5Q]]]]]]]]]]]]]",
"]]]]]]]]]]]]]^c#8999990h962:559099Q]]]]]]]]]]]]]",
"]]]]]]]]]]]]]/m& X..XX....oX.X.ou9Q]]]]]]]]]]]]]",
"]]]]]]]]]]]]]/g*,hg99yhDp9yDky6<y6Q]]]]]]]]]]]]]",
"]]]]]]]]]]]]]^m@ZppgJdcVx59cmdzA65Q]]]]]]]]]]]]]",
"]]]]]]]]]]]]]^x%9545934594495259y7Q]]]]]]]]]]]]]",
"]]]]]]]]]]]]]/s&..X.......o.X..oyuQ]]]]]]]]]]]]]",
"]]]]]]]]]]]]]/B2,yuy995932u9959<i5Q]]]]]]]]]]]]]",
"]]]]]]]]]]]]]^s;ZzLcPxfCdzmUzzLAa5Q]]]]]]]]]]]]]",
"]]]]]]]]]]]]]^g%955595;55:92:98999Q]]]]]]]]]]]]]",
"]]]]]]]]]]]]]^x@.. ....X...X.. .95Q]]]]]]]]]]]]]",
"]]]]]]]]]]]]]^s+,y954599459y79y<yyQ]]]]]]]]]]]]]",
"]]]]]]]]]]]]]/m$pvVNMuivzaxsdsTsu5Q]]]]]]]]]]]]]",
"]]]]]]]]]]]]]/z;r9p655597523529579Q]]]]]]]]]]]]]",
"]]]]]]]]]]]]]/x%.......X.o.X...o65Q]]]]]]]]]]]]]",
"]]]]]]]]]]]]]^mO,hg99yhDp9yDky6<u9Q]]]]]]]]]]]]]",
"]]]]]]]]]]]]]^g;ZppgJdcVx59cmdzAu7Q]]]]]]]]]]]]]",
"]]]]]]]]]]]]]/z#9545934594495259i2Q]]]]]]]]]]]]]",
"]]]]]]]]]]]]]^uo....X..X..o.XX.+i5Q]]]]]]]]]]]]]",
"]]]]]]]]]]]]]^p.,9p9pap549yyuuy;y9Q]]]]]]]]]]]]]",
"]]]]]]]]]]]]]^i&SnPcPcdcxLxzIYRAy5Q]]]]]]]]]]]]]",
"]]]]]]]]]]]]]^s-8999990h962:5590y4Q]]]]]]]]]]]]]",
"]]]]]]]]]]]]]^9= X. ...........o3;Q]]]]]]]]]]]]]",
"]]]]]]]]]]]]]^x@,y954599459y79y<77Q]]]]]]]]]]]]]",
"]]]]]]]]]]]]]/m&pvVNMuivzaxsdsTsy5Q]]]]]]]]]]]]]",
"]]]]]]]]]]]]]/g*r9p6555975235295yyQ]]]]]]]]]]]]]",
"]]]]]]]]]]]]]^m+.......X.o.X...ou5Q]]]]]]]]]]]]]",
"]]]]]]]]]]]]]^x%,hg99yhDp9yDky6<59Q]]]]]]]]]]]]]",
"]]]]]]]]]]]]]/s&ZppgJdcVx59cmdzA95Q]]]]]]]]]]]]]",
"]]]]]]]]]]]]]^s#9545934594495259y4Q]]]]]]]]]]]]]",
"]]]]]]]]]]]]]^9=>>>>>>>>>>>>>>>>3*Q]]]]]]]]]]]]]",
"]]]]]]]]]]]]]^uq`''''''''''''''`j5Q]]]]]]]]]]]]]",
"]]]]]]]]]]]]]/IZ']]]]]]]]]]]]]]'PmQ]]]]]]]]]]]]]",
"]]]]]]]]]]]]]^zr']]]]]]]]]]]]]]'FgQ]]]]]]]]]]]]]",
"]]]]]]]]]]]]]_Q!]]]]]]]]]]]]]]]]~Q_]]]]]]]]]]]]]",
"]]]]]]]]]]]]]]]]]]]]]]]]]]]]]]]]]]]]]]]]]]]]]]]]",
"]]]]]]]]]]]]]]]]]]]]]]]]]]]]]]]]]]]]]]]]]]]]]]]]",
"]]]]]]]]]]]]]]]]]]]]]]]]]]]]]]]]]]]]]]]]]]]]]]]]",
"]]]]]]]]]]]]]]]]]]]]]]]]]]]]]]]]]]]]]]]]]]]]]]]]"
};
